<svg id="Layer_1" data-name="Layer 1" xmlns="http://www.w3.org/2000/svg" viewBox="0 0 146.95 33.02"><defs><style>.cls-1{fill:#435ebe;}.cls-2{fill:#41bbdd;}</style></defs><title>logo</title><path class="cls-1" d="M0,27.47C0,31.88,6.18,33,13.5,33S27,31.92,27,27.51,20.82,22,13.5,22,0,23.06,0,27.47Z" transform="translate(0 0)"/><circle class="cls-2" cx="13.5" cy="8.8" r="8.8"/><path class="cls-1" d="M53.41,24.82c0,.2-.09.3-.31.3a8.17,8.17,0,0,1-1.23-.24c-.68-.17-1.1-.28-1.26-.34a12.35,12.35,0,0,1-4.5.92,7.55,7.55,0,0,1-5.69-2.31,8,8,0,0,1-2.21-5.76,8.45,8.45,0,0,1,2.14-5.91,7.35,7.35,0,0,1,5.71-2.43,8.13,8.13,0,0,1,3.22.65,6.12,6.12,0,0,1,2.56,2,.91.91,0,0,1,.19.38,4.34,4.34,0,0,1-1,1.61c-.67.83-1.1,1.25-1.29,1.25s-.22-.15-.52-.46a4.67,4.67,0,0,0-1.12-.85,3.89,3.89,0,0,0-1.89-.46,3.22,3.22,0,0,0-2.67,1.26,4.44,4.44,0,0,0-.92,2.88,4.17,4.17,0,0,0,1,2.9,3.58,3.58,0,0,0,2.8,1.1,7,7,0,0,0,2.56-.57c0-.25-.09-.88-.2-1.89A15.56,15.56,0,0,1,48.57,17c0-.14,0-.22.15-.25a.36.36,0,0,1,.18,0c.21,0,.54,0,1,.06a9.29,9.29,0,0,0,1,.07c.24,0,.6,0,1.08-.05s.84-.05,1.08-.05.28.12.28.37,0,.9-.06,1.62-.06,1.27-.06,1.63c0,1,.07,2.41.21,4.34Z" transform="translate(0 0)"/><path class="cls-1" d="M66.46,15c0,.56,0,1.39-.08,2.5S66.3,19.4,66.3,20s0,1.35.06,2.42.06,1.89.06,2.42a.36.36,0,0,1-.29.38,8.51,8.51,0,0,1-1.8.11,16.17,16.17,0,0,1-1.71-.06.34.34,0,0,1-.27-.27l-.07-.68q-.06-.51-.15-.51c.1,0-.28.25-1.14.76a4.68,4.68,0,0,1-2.35.76c-2,0-3.16-.89-3.52-2.68A19.42,19.42,0,0,1,54.87,19a15.45,15.45,0,0,1,.42-4c.08-.31.23-.46.46-.46h3.14c.23,0,.35.1.35.29s0,.13,0,.24a19.94,19.94,0,0,0-.24,3.1,19.35,19.35,0,0,0,.12,2.67,1.34,1.34,0,0,0,1.48,1.24,1.87,1.87,0,0,0,1.07-.44,1.31,1.31,0,0,0,.6-.91c0-.28,0-2.16,0-5.64a.9.9,0,0,1,.06-.44c0-.07.18-.11.4-.11H66c.23,0,.36.06.4.17A1.65,1.65,0,0,1,66.46,15Z" transform="translate(0 0)"/><path class="cls-1" d="M80.22,9.24q0-.24-.09.75c-.08.83-.15,1.89-.19,3.19-.06,1.46-.09,3.13-.09,5a56,56,0,0,0,.26,6.61c0,.14,0,.23,0,.27s-.06.13-.17.14c-.27,0-1.26.06-3,.06q-.6,0-.69-.24c0-.28,0-.57-.05-.85a.38.38,0,0,0-.09-.18.8.8,0,0,0-.17.14,4.17,4.17,0,0,1-3,1.19,4.74,4.74,0,0,1-3.79-1.67,5.89,5.89,0,0,1-1.36-4,6.05,6.05,0,0,1,1.33-4A4.75,4.75,0,0,1,73,13.94,3.32,3.32,0,0,1,75.59,15c.11.12.18.18.23.18s.1-.1.1-.3c0-.57,0-1.43,0-2.58s0-2,0-2.57c0-.22.06-.34.18-.37.48,0,1.13-.07,2-.14A15,15,0,0,0,80,9C80.14,9,80.22,9.06,80.22,9.24ZM76,19.57A2.22,2.22,0,0,0,75.37,18a2,2,0,0,0-1.5-.67,1.77,1.77,0,0,0-1.46.67,2.43,2.43,0,0,0-.55,1.6,2.29,2.29,0,0,0,.55,1.54,1.81,1.81,0,0,0,1.46.67,2,2,0,0,0,1.51-.67A2.31,2.31,0,0,0,76,19.57Z" transform="translate(0 0)"/><path class="cls-1" d="M93.17,19.57c0,.57,0,1.43.1,2.57s.1,2,.1,2.56q0,.45-.39.48c-.93.07-2,.1-3.19.1-.15,0-.24-.21-.29-.64s-.11-.65-.17-.66a1,1,0,0,0-.24.19,3.75,3.75,0,0,1-2.69,1.27,4.54,4.54,0,0,1-3.63-1.73,5.8,5.8,0,0,1-1.36-3.86,6.09,6.09,0,0,1,1.4-4.18,5.11,5.11,0,0,1,4-1.64,3.43,3.43,0,0,1,2.79,1.23s.05.06.07.06.15-.18.24-.54.18-.55.3-.55a9.73,9.73,0,0,1,1.59.24,14.62,14.62,0,0,1,1.59.38c.11,0,.17.1.17.18a2,2,0,0,1,0,.23A24.73,24.73,0,0,0,93.17,19.57Zm-3.62.06a2.21,2.21,0,0,0-.6-1.58,2.29,2.29,0,0,0-3.13,0,2.21,2.21,0,0,0-.59,1.58,2.15,2.15,0,0,0,.63,1.56,2,2,0,0,0,1.52.65,2,2,0,0,0,1.56-.62A2.15,2.15,0,0,0,89.55,19.63Z" transform="translate(0 0)"/><path class="cls-1" d="M106.57,24.85a.32.32,0,0,1-.32.35,16,16,0,0,1-1.64.05,11.78,11.78,0,0,1-1.75-.07.4.4,0,0,1-.34-.46c0-.35,0-.88,0-1.59s0-1.25,0-1.61,0-.69,0-1.24,0-1,0-1.24c0-1-.44-1.54-1.33-1.54a2,2,0,0,0-1,.38q-.63.44-.63.84v6.07a.37.37,0,0,1-.35.41c-.26,0-.8.05-1.61.05a12,12,0,0,1-1.7-.07c-.24,0-.35-.16-.35-.37,0-.58,0-1.46,0-2.64s0-2.06,0-2.65a17.39,17.39,0,0,0-.44-4.39,1.28,1.28,0,0,1,0-.17.26.26,0,0,1,.17-.25l1.89-.24a20.25,20.25,0,0,1,2-.35c.08,0,.14.25.19.76s.1.75.19.75c-.09,0,.32-.26,1.2-.78a4.81,4.81,0,0,1,2.33-.78,4,4,0,0,1,2.39.68,2.49,2.49,0,0,1,1.06,2.15v3.59c0,.48,0,1.21,0,2.18S106.57,24.37,106.57,24.85Z" transform="translate(0 0)"/><path class="cls-1" d="M119.63,22.26c0,2.13-.45,3.67-1.35,4.59s-2.47,1.43-4.63,1.43a15.09,15.09,0,0,1-2.57-.3c-1.38-.26-2.08-.56-2.08-.9a21.56,21.56,0,0,1,.49-2.2c.05-.21.13-.32.24-.32l.13.05a7.26,7.26,0,0,0,3.2.85,3.48,3.48,0,0,0,1.6-.4c.65-.32,1-.73,1-1.22v-.75a4.12,4.12,0,0,1-2.94,1.08,4.45,4.45,0,0,1-3.47-1.52,5.15,5.15,0,0,1-1.32-3.59,5.15,5.15,0,0,1,1.26-3.56A4.4,4.4,0,0,1,112.6,14a3,3,0,0,1,2.59,1.21c.12.17.2.25.25.25s.1-.14.1-.41c0-.59.07-.89.2-.89s.77.06,1.94.18,1.79.19,1.83.21a.28.28,0,0,1,.2.29c0,.52,0,1.29,0,2.31s-.06,1.8-.06,2.32c0,.3,0,.76,0,1.38S119.63,22,119.63,22.26Zm-3.89-3.11a2,2,0,0,0-.54-1.42,1.78,1.78,0,0,0-1.37-.6,1.74,1.74,0,0,0-1.36.61,2.07,2.07,0,0,0-.55,1.43,2,2,0,0,0,.56,1.42,1.85,1.85,0,0,0,2.72,0A2.09,2.09,0,0,0,115.74,19.15Z" transform="translate(0 0)"/><path class="cls-2" d="M134.05,17.85a4.07,4.07,0,0,1-2.44,3.77c-.15.08-.22.15-.22.24a7.26,7.26,0,0,0,1,1.59,15.47,15.47,0,0,1,1,1.46c0,.2-1,.31-3,.31-.77,0-1.21-.1-1.33-.3-.3-.5-.76-1.22-1.4-2.15a11.85,11.85,0,0,0-2-.16c0,.23,0,.6,0,1.11s0,.89,0,1.13a.34.34,0,0,1-.33.38c-.13,0-.72,0-1.77,0a13.43,13.43,0,0,1-1.58-.05c-.21,0-.31-.19-.31-.46V17.87c0-.92,0-2.3-.1-4.13s-.1-3.21-.1-4.13c0-.17.1-.27.3-.28.4,0,1,0,1.79,0,.21,0,.57-.06,1.09-.13a7.5,7.5,0,0,1,1.08-.1c.12,0,.18.1.18.32s0,.67-.07,1.16-.08,1-.09,1.17c-.07,1.61-.1,2.85-.1,3.74,0,.21,0,.31.08.32a1.4,1.4,0,0,0,.27-.25A4.73,4.73,0,0,1,129.66,14a5,5,0,0,1,3.12.9A3.5,3.5,0,0,1,134.05,17.85Zm-4.46.73c0-.91-.51-1.36-1.54-1.36a2.69,2.69,0,0,0-1.46.51,1.53,1.53,0,0,0-.83,1.21c0,.62.08,1,.26,1.12a3.35,3.35,0,0,0,1.29.13C128.83,20.19,129.59,19.66,129.59,18.58Z" transform="translate(0 0)"/><path class="cls-2" d="M147,15c0,.56,0,1.39-.08,2.5s-.07,1.93-.07,2.49,0,1.35,0,2.42.06,1.89.06,2.42a.36.36,0,0,1-.28.38,8.69,8.69,0,0,1-1.81.11,16.17,16.17,0,0,1-1.71-.06.34.34,0,0,1-.27-.27l-.07-.68c0-.34-.09-.51-.15-.51.1,0-.28.25-1.14.76a4.67,4.67,0,0,1-2.34.76c-2,0-3.16-.89-3.53-2.68a19.42,19.42,0,0,1-.25-3.62,15.45,15.45,0,0,1,.42-4c.08-.31.23-.46.46-.46h3.14c.24,0,.35.1.35.29s0,.13,0,.24a19.94,19.94,0,0,0-.24,3.1,17.42,17.42,0,0,0,.13,2.67,1.33,1.33,0,0,0,1.47,1.24,1.84,1.84,0,0,0,1.07-.44,1.25,1.25,0,0,0,.6-.91c0-.28,0-2.16,0-5.64a.9.9,0,0,1,.06-.44c0-.07.18-.11.4-.11h3.32c.22,0,.35.06.39.17A1,1,0,0,1,147,15Z" transform="translate(0 0)"/></svg>